HIERARCHY
ROOT Root
{
  OFFSET 0.0 0.0 0.0
  CHANNELS 6 Xposition Yposition Zposition Zrotation Yrotation Xrotation
  JOINT Hips
  {
    OFFSET 0.0 100.0 0.0
    CHANNELS 6 Xposition Yposition Zposition Zrotation Yrotation Xrotation
    JOINT Spine1
    {
      OFFSET 5.003913 -0.037094 -0.013727
      CHANNELS 3 Zrotation Yrotation Xrotation
      JOINT Spine2
      {
        OFFSET 7.125363 -1e-06 0.0
        CHANNELS 3 Zrotation Yrotation Xrotation
        JOINT Chest
        {
          OFFSET 7.594027 1e-06 0.0
          CHANNELS 3 Zrotation Yrotation Xrotation
          JOINT Neck1
          {
            OFFSET 26.313086 -0.460272 -0.181672
            CHANNELS 3 Zrotation Yrotation Xrotation
            JOINT Neck2
            {
              OFFSET 8.045911 0.0 0.0
              CHANNELS 3 Zrotation Yrotation Xrotation
              JOINT Head
              {
                OFFSET 6.432774 0.0 0.0
                CHANNELS 3 Zrotation Yrotation Xrotation
                JOINT HeadEnd
                {
                  OFFSET 16.169773 0.06451 0.00362
                  CHANNELS 3 Zrotation Yrotation Xrotation
                }
                JOINT Jaw
                {
                  OFFSET 0.108741 3.12938 0.002639
                  CHANNELS 3 Zrotation Yrotation Xrotation
                }
                JOINT LeftEye
                {
                  OFFSET 4.45173 8.166359 3.206392
                  CHANNELS 3 Zrotation Yrotation Xrotation
                }
                JOINT RightEye
                {
                  OFFSET 4.436895 8.135758 -3.222429
                  CHANNELS 3 Zrotation Yrotation Xrotation
                }
              }
            }
          }
          JOINT LeftShoulder
          {
            OFFSET 23.218927 5.195579 1.621656
            CHANNELS 3 Zrotation Yrotation Xrotation
            JOINT LeftArm
            {
              OFFSET 15.902118 2e-06 -2e-06
              CHANNELS 3 Zrotation Yrotation Xrotation
              JOINT LeftForeArm
              {
                OFFSET 28.739307 0.0 -1e-06
                CHANNELS 3 Zrotation Yrotation Xrotation
                JOINT LeftHand
                {
                  OFFSET 27.093981 -4e-06 0.0
                  CHANNELS 3 Zrotation Yrotation Xrotation
                  JOINT LeftHandThumb1
                  {
                    OFFSET 2.276781 3.380274 0.83384
                    CHANNELS 3 Zrotation Yrotation Xrotation
                    JOINT LeftHandThumb2
                    {
                      OFFSET 4.705309 -1e-06 -1e-06
                      CHANNELS 3 Zrotation Yrotation Xrotation
                      JOINT LeftHandThumb3
                      {
                        OFFSET 2.798515 0.0 3e-06
                        CHANNELS 3 Zrotation Yrotation Xrotation
                        JOINT LeftHandThumbEnd
                        {
                          OFFSET 3.180793 4e-06 -4e-06
                          CHANNELS 3 Zrotation Yrotation Xrotation
                        }
                      }
                    }
                  }
                  JOINT LeftHandIndex1
                  {
                    OFFSET 3.247786 2.352677 0.137192
                    CHANNELS 3 Zrotation Yrotation Xrotation
                    JOINT LeftHandIndex2
                    {
                      OFFSET 6.367095 1e-06 0.0
                      CHANNELS 3 Zrotation Yrotation Xrotation
                      JOINT LeftHandIndex3
                      {
                        OFFSET 3.662364 0.0 0.0
                        CHANNELS 3 Zrotation Yrotation Xrotation
                        JOINT LeftHandIndex4
                        {
                          OFFSET 2.329242 4e-06 -4e-06
                          CHANNELS 3 Zrotation Yrotation Xrotation
                          JOINT LeftHandIndexEnd
                          {
                            OFFSET 2.767823 1e-06 0.0
                            CHANNELS 3 Zrotation Yrotation Xrotation
                          }
                        }
                      }
                    }
                  }
                  JOINT LeftHandMiddle1
                  {
                    OFFSET 3.163612 0.945023 -0.406112
                    CHANNELS 3 Zrotation Yrotation Xrotation
                    JOINT LeftHandMiddle2
                    {
                      OFFSET 6.276789 3e-06 0.0
                      CHANNELS 3 Zrotation Yrotation Xrotation
                      JOINT LeftHandMiddle3
                      {
                        OFFSET 4.35652 -1e-06 4e-06
                        CHANNELS 3 Zrotation Yrotation Xrotation
                        JOINT LeftHandMiddle4
                        {
                          OFFSET 2.996877 0.0 8e-06
                          CHANNELS 3 Zrotation Yrotation Xrotation
                          JOINT LeftHandMiddleEnd
                          {
                            OFFSET 2.323256 3e-06 -4e-06
                            CHANNELS 3 Zrotation Yrotation Xrotation
                          }
                        }
                      }
                    }
                  }
                  JOINT LeftHandRing1
                  {
                    OFFSET 2.882606 -0.309162 0.107445
                    CHANNELS 3 Zrotation Yrotation Xrotation
                    JOINT LeftHandRing2
                    {
                      OFFSET 6.033198 0.0 4e-06
                      CHANNELS 3 Zrotation Yrotation Xrotation
                      JOINT LeftHandRing3
                      {
                        OFFSET 4.350578 3e-06 0.0
                        CHANNELS 3 Zrotation Yrotation Xrotation
                        JOINT LeftHandRing4
                        {
                          OFFSET 2.651321 2e-06 -7e-06
                          CHANNELS 3 Zrotation Yrotation Xrotation
                          JOINT LeftHandRingEnd
                          {
                            OFFSET 1.937663 1e-06 -4e-06
                            CHANNELS 3 Zrotation Yrotation Xrotation
                          }
                        }
                      }
                    }
                  }
                  JOINT LeftHandPinky1
                  {
                    OFFSET 2.865315 -1.525436 0.575687
                    CHANNELS 3 Zrotation Yrotation Xrotation
                    JOINT LeftHandPinky2
                    {
                      OFFSET 5.54936 1e-06 -8e-06
                      CHANNELS 3 Zrotation Yrotation Xrotation
                      JOINT LeftHandPinky3
                      {
                        OFFSET 3.070974 0.0 -4e-06
                        CHANNELS 3 Zrotation Yrotation Xrotation
                        JOINT LeftHandPinky4
                        {
                          OFFSET 1.549672 1e-06 0.0
                          CHANNELS 3 Zrotation Yrotation Xrotation
                          JOINT LeftHandPinkyEnd
                          {
                            OFFSET 1.952123 0.0 0.0
                            CHANNELS 3 Zrotation Yrotation Xrotation
                          }
                        }
                      }
                    }
                  }
                }
              }
            }
          }
          JOINT RightShoulder
          {
            OFFSET 23.161716 5.296122 -1.380114
            CHANNELS 3 Zrotation Yrotation Xrotation
            JOINT RightArm
            {
              OFFSET -16.027195 -2e-06 1.1e-05
              CHANNELS 3 Zrotation Yrotation Xrotation
              JOINT RightForeArm
              {
                OFFSET -28.736639 4e-06 2e-06
                CHANNELS 3 Zrotation Yrotation Xrotation
                JOINT RightHand
                {
                  OFFSET -27.133619 6e-06 0.0
                  CHANNELS 3 Zrotation Yrotation Xrotation
                  JOINT RightHandThumb1
                  {
                    OFFSET -2.274328 -3.351035 -0.83067
                    CHANNELS 3 Zrotation Yrotation Xrotation
                    JOINT RightHandThumb2
                    {
                      OFFSET -4.703594 -3e-06 2e-06
                      CHANNELS 3 Zrotation Yrotation Xrotation
                      JOINT RightHandThumb3
                      {
                        OFFSET -2.794935 -4e-06 -3e-06
                        CHANNELS 3 Zrotation Yrotation Xrotation
                        JOINT RightHandThumbEnd
                        {
                          OFFSET -3.183852 4e-06 1e-06
                          CHANNELS 3 Zrotation Yrotation Xrotation
                        }
                      }
                    }
                  }
                  JOINT RightHandIndex1
                  {
                    OFFSET -3.253496 -2.33755 -0.127667
                    CHANNELS 3 Zrotation Yrotation Xrotation
                    JOINT RightHandIndex2
                    {
                      OFFSET -6.344434 0.0 0.0
                      CHANNELS 3 Zrotation Yrotation Xrotation
                      JOINT RightHandIndex3
                      {
                        OFFSET -3.654871 0.0 -8e-06
                        CHANNELS 3 Zrotation Yrotation Xrotation
                        JOINT RightHandIndex4
                        {
                          OFFSET -2.327586 -1e-06 0.0
                          CHANNELS 3 Zrotation Yrotation Xrotation
                          JOINT RightHandIndexEnd
                          {
                            OFFSET -2.770001 3e-06 8e-06
                            CHANNELS 3 Zrotation Yrotation Xrotation
                          }
                        }
                      }
                    }
                  }
                  JOINT RightHandMiddle1
                  {
                    OFFSET -3.168223 -0.944764 0.411762
                    CHANNELS 3 Zrotation Yrotation Xrotation
                    JOINT RightHandMiddle2
                    {
                      OFFSET -6.266691 -1e-06 -4e-06
                      CHANNELS 3 Zrotation Yrotation Xrotation
                      JOINT RightHandMiddle3
                      {
                        OFFSET -4.348901 0.0 0.0
                        CHANNELS 3 Zrotation Yrotation Xrotation
                        JOINT RightHandMiddle4
                        {
                          OFFSET -3.00024 2e-06 -4e-06
                          CHANNELS 3 Zrotation Yrotation Xrotation
                          JOINT RightHandMiddleEnd
                          {
                            OFFSET -2.321477 -4e-06 -4e-06
                            CHANNELS 3 Zrotation Yrotation Xrotation
                          }
                        }
                      }
                    }
                  }
                  JOINT RightHandRing1
                  {
                    OFFSET -2.885654 0.293261 -0.119232
                    CHANNELS 3 Zrotation Yrotation Xrotation
                    JOINT RightHandRing2
                    {
                      OFFSET -6.032835 -1e-06 -4e-06
                      CHANNELS 3 Zrotation Yrotation Xrotation
                      JOINT RightHandRing3
                      {
                        OFFSET -4.33881 0.0 -4e-06
                        CHANNELS 3 Zrotation Yrotation Xrotation
                        JOINT RightHandRing4
                        {
                          OFFSET -2.654903 -4e-06 -4e-06
                          CHANNELS 3 Zrotation Yrotation Xrotation
                          JOINT RightHandRingEnd
                          {
                            OFFSET -1.935122 0.0 4e-06
                            CHANNELS 3 Zrotation Yrotation Xrotation
                          }
                        }
                      }
                    }
                  }
                  JOINT RightHandPinky1
                  {
                    OFFSET -2.866241 1.503904 -0.60527
                    CHANNELS 3 Zrotation Yrotation Xrotation
                    JOINT RightHandPinky2
                    {
                      OFFSET -5.553177 -2e-06 0.0
                      CHANNELS 3 Zrotation Yrotation Xrotation
                      JOINT RightHandPinky3
                      {
                        OFFSET -3.062664 -1e-06 -4e-06
                        CHANNELS 3 Zrotation Yrotation Xrotation
                        JOINT RightHandPinky4
                        {
                          OFFSET -1.546529 2e-06 4e-06
                          CHANNELS 3 Zrotation Yrotation Xrotation
                          JOINT RightHandPinkyEnd
                          {
                            OFFSET -1.952341 0.0 -4e-06
                            CHANNELS 3 Zrotation Yrotation Xrotation
                          }
                        }
                      }
                    }
                  }
                }
              }
            }
          }
        }
      }
    }
    JOINT LeftLeg
    {
      OFFSET -8.443107 2.567604 10.043214
      CHANNELS 3 Zrotation Yrotation Xrotation
      JOINT LeftShin
      {
        OFFSET 43.229198 1e-06 -1e-06
        CHANNELS 3 Zrotation Yrotation Xrotation
        JOINT LeftFoot
        {
          OFFSET 42.298611 1e-06 1e-06
          CHANNELS 3 Zrotation Yrotation Xrotation
          JOINT LeftToeBase
          {
            OFFSET 14.165858 1e-06 0.0
            CHANNELS 3 Zrotation Yrotation Xrotation
            JOINT LeftToeEnd
            {
              OFFSET 6.7141 -0.234461 0.0
              CHANNELS 3 Zrotation Yrotation Xrotation
            }
          }
        }
      }
    }
    JOINT RightLeg
    {
      OFFSET -8.303923 2.592729 -10.047278
      CHANNELS 3 Zrotation Yrotation Xrotation
      JOINT RightShin
      {
        OFFSET -43.369682 0.0 1e-06
        CHANNELS 3 Zrotation Yrotation Xrotation
        JOINT RightFoot
        {
          OFFSET -42.260784 4e-06 2e-06
          CHANNELS 3 Zrotation Yrotation Xrotation
          JOINT RightToeBase
          {
            OFFSET -14.222245 -2e-06 -1e-06
            CHANNELS 3 Zrotation Yrotation Xrotation
            JOINT RightToeEnd
            {
              OFFSET -6.660062 0.232574 -2e-06
              CHANNELS 3 Zrotation Yrotation Xrotation
            }
          }
        }
      }
    }
  }
}
MOTION
Frames: 4
Frame Time: 0.03333333333333333
0.0 0.0 0.0 0.0 -0.0 0.0 2.179401 11.573898 96.366241 -151.447571 -87.536217 -31.986917 -1.560647 -2.262925 -1.290719 -10.978006 -1.073021 0.621957 13.173383 -2.770872 -1.939533 -0.830204 3.107076 2.807997 -2.645657 -0.888391 3.174502 -37.353542 5.029937 1.490044 5e-06 -0.0 0.0 -0.189494 -0.057037 0.054341 -0.300506 -0.058608 0.099313 -0.337246 -0.037019 0.009232 -40.535007 -77.058395 46.237751 -12.586968 -12.267738 -66.869278 148.223267 2.065472 -0.855096 -16.2941 37.280098 8.705233 17.636616 -26.322729 52.411171 -19.46666 -14.395598 29.410381 -0.0 -8.77482 -1e-06 14.910146 -16.918869 6.081389 -0.609775 -1.795652 -3.889327 -4.807087 -11.046809 -2.937848 2e-06 -20.976015 2e-06 -5.01997 -25.033554 -4.031878 5e-06 0.0 1e-06 -10.634531 -5.686969 -3.565585 10.573274 -17.922947 -3.113901 1e-06 -13.821205 2e-06 -0.501781 -31.181505 -4.027014 -10.296376 -58.911545 6.577792 -13.982712 -7.150196 -2.875039 13.77273 -8.401491 -3.218243 0.347731 -34.211544 0.771656 -0.963027 -17.733366 2.62102 -1e-06 1e-06 -0.0 -17.346415 -20.095213 -4.201777 21.757555 -1.638372 3.866424 1e-06 -6.338822 1e-06 -1.697593 -22.591743 -6.194002 1e-06 -5e-06 -2e-06 153.194855 -72.349319 34.529964 7.324661 -26.553379 -58.465744 135.343475 3.997309 -3.364574 -22.416039 29.328115 15.463722 22.18211 -20.375891 49.933315 -16.701817 -16.74353 28.47653 -2e-06 -12.690601 -0.0 16.798967 -18.459469 2.343989 -0.10592 -1.513857 -4.275882 -5.039041 -5.612872 -2.953556 4e-06 -11.020527 -3e-06 -6.111298 -15.895334 -3.84047 0.0 -0.0 -0.0 -10.28337 -5.68029 -4.341837 11.028294 -11.302405 -2.372635 -1.38427 -14.238577 -6.320121 -0.625438 -26.924198 -3.827604 -4.756557 -50.513927 -4.320845 -13.708524 -7.363478 -3.720938 18.141151 -14.052739 -3.242676 6e-06 -18.787271 -4e-06 -0.429712 -8.456041 2.555503 0.0 -1e-06 0.0 -15.923536 -20.094486 -5.473584 30.41921 -7.190823 1.735924 2e-06 -8.162924 -1e-06 -1.861904 -22.861469 -6.167943 0.0 -3e-06 -1e-06 176.555222 -34.300739 -81.5075 31.936493 -17.271128 34.600784 -112.169044 40.137974 -20.66177 -26.261703 1.715302 1.92458 -0.999999 -0.0 0.0 -11.866356 -36.734783 -68.927841 47.233807 -12.732791 21.438805 -104.904739 43.024208 -29.823795 -22.226002 0.680835 1.606507 -1.000002 -1e-06 1e-06 
0.0 0.0 0.0 0.0 -0.0 0.0 2.217425 11.666357 96.382614 -150.364441 -87.473305 -32.957874 -1.453409 -2.258672 -1.307772 -10.926038 -1.133783 0.579978 13.167206 -2.760971 -1.964746 -1.168963 2.797278 2.792207 -2.657303 -0.898732 3.01665 -37.566143 5.038791 1.508007 4e-06 0.0 0.0 -0.201086 -0.083505 0.079121 -0.294402 -0.081605 0.128619 -0.324537 -0.067809 0.028459 -36.923702 -77.063019 42.270035 -11.941491 -7.681439 -70.30674 145.394028 2.410097 -0.940241 -17.70896 35.601669 6.775433 17.636633 -26.322737 52.411186 -19.466654 -14.395598 29.410381 -0.0 -8.77482 -2e-06 14.931943 -16.865389 6.028224 -0.609778 -1.795652 -3.889327 -4.807087 -11.046809 -2.937848 2e-06 -20.976015 3e-06 -5.019975 -25.033552 -4.031877 7e-06 0.0 1e-06 -10.634537 -5.686969 -3.565586 10.573277 -17.922949 -3.113898 -0.0 -13.821206 3e-06 -0.501783 -31.181498 -4.027007 -10.381843 -58.887119 6.70071 -13.982714 -7.150196 -2.875041 13.772728 -8.401491 -3.218239 0.34773 -34.211555 0.771661 -0.963033 -17.73337 2.621022 -1e-06 1e-06 -1e-06 -17.346416 -20.095211 -4.20178 21.757555 -1.638375 3.866428 2e-06 -6.338823 2e-06 -1.697589 -22.591742 -6.194004 -1e-06 -4e-06 -2e-06 155.794388 -73.150902 31.997896 8.048794 -22.706892 -63.736763 134.174057 3.173676 -2.599346 -23.073833 26.852207 13.672289 22.182114 -20.375893 49.933323 -16.701809 -16.74353 28.476528 -2e-06 -12.690601 -1e-06 16.835928 -18.348166 2.320953 -0.10592 -1.513856 -4.275881 -5.039041 -5.61287 -2.953557 4e-06 -11.020523 -2e-06 -6.111297 -15.895328 -3.840471 -0.0 -2e-06 0.0 -10.283372 -5.680288 -4.341839 11.028296 -11.302404 -2.372633 -1.384269 -14.238579 -6.320122 -0.625437 -26.924187 -3.827603 -4.898792 -50.687767 -4.128193 -13.708526 -7.363475 -3.72094 18.141148 -14.052739 -3.242674 6e-06 -18.787266 -2e-06 -0.429712 -8.456046 2.555503 0.0 1e-06 -0.0 -15.923536 -20.094482 -5.473585 30.41921 -7.190824 1.735926 4e-06 -8.162922 -0.0 -1.861904 -22.861467 -6.167942 -1e-06 -2e-06 -1e-06 176.349258 -34.355438 -81.099289 32.213047 -16.954479 34.083954 -111.972488 40.339088 -20.378223 -26.504141 1.710689 1.87987 -0.999999 -0.0 0.0 -12.007011 -36.812126 -69.03582 47.231037 -12.70859 21.455492 -104.267387 42.512699 -29.570547 -22.300764 0.649457 1.576361 -1.000001 -1e-06 1e-06 
0.0 0.0 0.0 0.0 -0.0 0.0 2.237347 11.723155 96.432098 -150.217636 -87.42321 -32.995399 -1.384271 -2.238461 -1.296359 -10.894858 -1.16417 0.508746 13.15974 -2.79882 -1.974385 -1.562944 2.541156 2.776744 -2.6682 -0.865783 2.898067 -37.73584 4.90769 1.55147 5e-06 -0.0 -0.0 -0.206559 -0.111537 0.105402 -0.281709 -0.104465 0.156617 -0.304535 -0.102028 0.052605 -33.520344 -77.060989 38.582836 -11.362108 -3.777455 -72.376236 142.676773 2.377983 -0.87576 -18.353073 34.359192 5.478597 17.636633 -26.322721 52.411179 -19.466658 -14.395596 29.410385 -0.0 -8.774818 -2e-06 14.98204 -16.852114 5.990395 -0.609776 -1.795654 -3.889326 -4.807087 -11.046809 -2.93785 4e-06 -20.976015 -2e-06 -5.019969 -25.033556 -4.031883 7e-06 -2e-06 -1e-06 -10.63453 -5.68697 -3.565586 10.573272 -17.922947 -3.113901 1e-06 -13.821205 -0.0 -0.501778 -31.181501 -4.027016 -10.421124 -58.86359 6.790699 -13.982712 -7.150197 -2.875043 13.772728 -8.401489 -3.21824 0.347735 -34.211544 0.771649 -0.963028 -17.73337 2.621017 -0.0 1e-06 -1e-06 -17.346413 -20.095213 -4.201782 21.757555 -1.638374 3.866428 1e-06 -6.338821 1e-06 -1.697589 -22.591745 -6.194007 0.0 -3e-06 -2e-06 157.848312 -73.836243 30.084846 8.632574 -19.738842 -67.383461 133.176743 2.61 -2.047978 -23.468292 25.194157 12.513103 22.182121 -20.375895 49.933319 -16.701811 -16.74353 28.476522 -3e-06 -12.690602 -2e-06 16.806135 -18.255426 2.343341 -0.105919 -1.513855 -4.275881 -5.039042 -5.612871 -2.953557 4e-06 -11.020524 -2e-06 -6.1113 -15.895334 -3.840471 -0.0 -2e-06 0.0 -10.283372 -5.680287 -4.341838 11.028296 -11.302405 -2.372632 -1.38427 -14.238577 -6.320121 -0.625439 -26.924187 -3.827601 -4.996518 -50.807663 -3.964524 -13.708526 -7.363475 -3.72094 18.141148 -14.052738 -3.242671 6e-06 -18.787266 -1e-06 -0.429712 -8.456041 2.555505 -1e-06 -1e-06 -0.0 -15.923536 -20.094482 -5.473586 30.41921 -7.190827 1.735929 3e-06 -8.162922 -0.0 -1.861904 -22.861467 -6.167941 -0.0 -2e-06 -1e-06 176.279129 -34.334496 -80.806427 32.301006 -16.572418 33.673351 -111.650757 40.526897 -20.19754 -26.456394 1.705399 1.86675 -1.0 -0.0 0.0 -12.021844 -36.860699 -69.24173 47.129013 -12.661995 21.511293 -103.543694 41.949329 -29.269464 -22.066322 0.612031 1.566154 -1.000001 -1e-06 0.0 
0.0 0.0 0.0 0.0 -0.0 0.0 2.240425 11.727196 96.485435 -151.216019 -87.390305 -31.893583 -1.325791 -2.220453 -1.282693 -10.879807 -1.162793 0.421834 13.151267 -2.870941 -1.987815 -1.909387 2.389852 2.761978 -2.670169 -0.77367 2.83826 -37.794498 4.605716 1.672018 4e-06 -0.0 -0.0 -0.205832 -0.128161 0.121515 -0.272416 -0.115696 0.171803 -0.287145 -0.125205 0.069842 -30.35445 -77.081841 35.154633 -10.795294 -0.309398 -73.695717 140.0625 2.193386 -0.740179 -18.645584 33.416283 4.340634 17.636621 -26.322741 52.411205 -19.466663 -14.3956 29.410395 -1e-06 -8.774822 -1e-06 15.090629 -16.852222 5.92359 -0.609778 -1.795654 -3.889328 -4.80709 -11.046811 -2.93785 5e-06 -20.976019 1e-06 -5.019972 -25.03356 -4.031881 6e-06 -1e-06 0.0 -10.634537 -5.686971 -3.565587 10.573272 -17.922951 -3.113901 2e-06 -13.821209 2e-06 -0.50178 -31.181505 -4.027015 -10.416717 -58.875301 6.818366 -13.982712 -7.150198 -2.875041 13.772729 -8.401491 -3.218242 0.347733 -34.211555 0.771655 -0.963029 -17.733372 2.621022 -1e-06 -1e-06 -1e-06 -17.34642 -20.095219 -4.20178 21.757557 -1.638373 3.866427 2e-06 -6.338823 2e-06 -1.697591 -22.591747 -6.194005 -2e-06 -3e-06 -5e-06 159.430771 -74.494698 28.65695 9.119236 -17.231409 -70.08712 132.202377 2.145496 -1.635606 -23.695362 24.110552 11.521731 22.182114 -20.375895 49.933319 -16.701815 -16.74353 28.476534 -2e-06 -12.690601 -1e-06 16.741144 -18.1635 2.374081 -0.105919 -1.513856 -4.275882 -5.039041 -5.612869 -2.953557 4e-06 -11.020523 -2e-06 -6.111297 -15.895334 -3.84047 -0.0 -0.0 0.0 -10.283369 -5.680287 -4.341838 11.028294 -11.302404 -2.372633 -1.384267 -14.238579 -6.32012 -0.625438 -26.924187 -3.8276 -5.064545 -50.860481 -3.822428 -13.708524 -7.363475 -3.720939 18.141148 -14.052739 -3.242674 5e-06 -18.787264 -2e-06 -0.429711 -8.456047 2.555504 0.0 1e-06 1e-06 -15.923532 -20.094482 -5.473586 30.41921 -7.190826 1.735926 3e-06 -8.162925 -1e-06 -1.861902 -22.861469 -6.16794 -1e-06 -3e-06 -3e-06 176.32901 -34.274597 -80.649254 32.282253 -16.20681 33.362556 -111.274567 40.701149 -20.079927 -26.221321 1.704874 1.873869 -1.000001 -0.0 -0.0 -11.95967 -36.920364 -69.488548 47.024635 -12.61002 21.577818 -102.58577 41.138748 -28.803833 -21.668327 0.583428 1.56986 -1.000001 -1e-06 0.0 
